<mxfile host="65bd71144e">
    <diagram id="HNvlSPPAvNH71BLPQctR" name="Page-1">
        <mxGraphModel dx="3186" dy="1731" grid="1" gridSize="10" guides="1" tooltips="1" connect="1" arrows="1" fold="1" page="1" pageScale="1" pageWidth="850" pageHeight="1100" math="0" shadow="0">
            <root>
                <mxCell id="0"/>
                <mxCell id="1" parent="0"/>
                <mxCell id="476" value="" style="rounded=1;whiteSpace=wrap;html=1;fillColor=#f5f5f5;fontColor=#333333;strokeColor=#666666;arcSize=5;" parent="1" vertex="1">
                    <mxGeometry x="850" y="40" width="850" height="980" as="geometry"/>
                </mxCell>
                <mxCell id="336" value="" style="rounded=1;whiteSpace=wrap;html=1;fillColor=#f5f5f5;fontColor=#333333;strokeColor=#666666;arcSize=5;" parent="1" vertex="1">
                    <mxGeometry x="1800" y="30" width="840" height="980" as="geometry"/>
                </mxCell>
                <mxCell id="331" style="edgeStyle=none;html=1;exitX=1;exitY=0;exitDx=0;exitDy=0;entryX=1;entryY=0;entryDx=0;entryDy=0;jumpStyle=none;dashed=1;" parent="1" source="37" target="30" edge="1">
                    <mxGeometry relative="1" as="geometry"/>
                </mxCell>
                <mxCell id="332" style="edgeStyle=none;html=1;exitX=0;exitY=0;exitDx=0;exitDy=0;entryX=0;entryY=0;entryDx=0;entryDy=0;jumpStyle=none;dashed=1;" parent="1" source="37" target="30" edge="1">
                    <mxGeometry relative="1" as="geometry"/>
                </mxCell>
                <mxCell id="52" value="" style="rounded=1;whiteSpace=wrap;html=1;fillColor=#f5f5f5;fontColor=#333333;strokeColor=#666666;" parent="1" vertex="1">
                    <mxGeometry x="-690" y="80" width="400" height="410" as="geometry"/>
                </mxCell>
                <mxCell id="30" value="" style="rounded=1;whiteSpace=wrap;html=1;arcSize=0;dashed=1;" parent="1" vertex="1">
                    <mxGeometry x="1990" y="120" width="480" height="440" as="geometry"/>
                </mxCell>
                <mxCell id="21" style="edgeStyle=none;html=1;exitX=0;exitY=0;exitDx=80;exitDy=40;exitPerimeter=0;entryX=0;entryY=0.25;entryDx=0;entryDy=0;" parent="1" source="2" target="16" edge="1">
                    <mxGeometry relative="1" as="geometry">
                        <Array as="points">
                            <mxPoint x="2174" y="230"/>
                            <mxPoint x="2174" y="330"/>
                        </Array>
                    </mxGeometry>
                </mxCell>
                <mxCell id="2" value="+" style="externalPins=0;recursiveResize=0;shadow=0;dashed=0;align=center;strokeWidth=1;shape=mxgraph.rtl.abstract.entity;container=0;collapsible=0;kind=combinational;drawPins=1;left=+:i;right=:o;bottom=+:i;top=+:i;bottomAnchor=middle;topRot=270;topAnchor=middle;bottomRot=90;leftAnchor=left;leftRot=0;rightAnchor=right;rightRot=180;fontSize=40;spacingTop=-10;spacingLeft=2;editable=1;resizable=1;movable=1;rotatable=1;deletable=1;locked=0;connectable=1;fillColor=#f8cecc;strokeColor=#b85450;" parent="1" vertex="1">
                    <mxGeometry x="2014" y="190" width="80" height="80" as="geometry"/>
                </mxCell>
                <mxCell id="22" style="edgeStyle=none;html=1;exitX=0;exitY=0;exitDx=80;exitDy=40;exitPerimeter=0;entryX=0;entryY=0.75;entryDx=0;entryDy=0;" parent="1" source="3" target="16" edge="1">
                    <mxGeometry relative="1" as="geometry">
                        <Array as="points">
                            <mxPoint x="2174" y="460"/>
                            <mxPoint x="2174" y="370"/>
                        </Array>
                    </mxGeometry>
                </mxCell>
                <mxCell id="3" value="+" style="externalPins=0;recursiveResize=0;shadow=0;dashed=0;align=center;strokeWidth=1;shape=mxgraph.rtl.abstract.entity;container=0;collapsible=0;kind=combinational;drawPins=1;left=+:i;right=:o;bottom=+:i;top=+:i;bottomAnchor=middle;topRot=270;topAnchor=middle;bottomRot=90;leftAnchor=left;leftRot=0;rightAnchor=right;rightRot=180;fontSize=40;spacingTop=-10;spacingLeft=2;editable=1;resizable=1;movable=1;rotatable=1;deletable=1;locked=0;connectable=1;fillColor=#f8cecc;strokeColor=#b85450;" parent="1" vertex="1">
                    <mxGeometry x="2014" y="420" width="80" height="80" as="geometry"/>
                </mxCell>
                <mxCell id="5" value="i_PM_" style="externalPins=0;recursiveResize=0;shadow=0;dashed=0;align=center;html=1;strokeWidth=1;shape=mxgraph.rtl.abstract.entity;container=1;collapsible=0;kind=input;drawPins=0;left=0;right=1;bottom=0;top=0;fillColor=#d5e8d4;strokeColor=#82b366;" parent="1" vertex="1">
                    <mxGeometry x="1834" y="440" width="120" height="40" as="geometry"/>
                </mxCell>
                <mxCell id="6" value="i_PM_" style="externalPins=0;recursiveResize=0;shadow=0;dashed=0;align=center;html=1;strokeWidth=1;shape=mxgraph.rtl.abstract.entity;container=1;collapsible=0;kind=input;drawPins=0;left=0;right=1;bottom=0;top=0;fillColor=#d5e8d4;strokeColor=#82b366;" parent="1" vertex="1">
                    <mxGeometry x="1834" y="210" width="120" height="40" as="geometry"/>
                </mxCell>
                <mxCell id="9" value="" style="endArrow=none;html=1;exitX=0;exitY=0;exitDx=120;exitDy=20;exitPerimeter=0;entryX=0;entryY=0;entryDx=0;entryDy=40;entryPerimeter=0;" parent="1" source="6" target="2" edge="1">
                    <mxGeometry width="50" height="50" relative="1" as="geometry">
                        <mxPoint x="1974" y="360" as="sourcePoint"/>
                        <mxPoint x="2024" y="310" as="targetPoint"/>
                    </mxGeometry>
                </mxCell>
                <mxCell id="10" value="" style="endArrow=none;html=1;exitX=0;exitY=0;exitDx=120;exitDy=20;exitPerimeter=0;entryX=0;entryY=0;entryDx=0;entryDy=40;entryPerimeter=0;" parent="1" source="5" target="3" edge="1">
                    <mxGeometry width="50" height="50" relative="1" as="geometry">
                        <mxPoint x="1964" y="430" as="sourcePoint"/>
                        <mxPoint x="2024" y="430" as="targetPoint"/>
                    </mxGeometry>
                </mxCell>
                <mxCell id="11" value="i_BM_" style="externalPins=0;recursiveResize=0;shadow=0;dashed=0;align=center;html=1;strokeWidth=1;shape=mxgraph.rtl.abstract.entity;container=1;collapsible=0;kind=input;drawPins=0;left=0;right=1;bottom=0;top=0;fillColor=#d5e8d4;strokeColor=#82b366;" parent="1" vertex="1">
                    <mxGeometry x="1834" y="350" width="120" height="40" as="geometry"/>
                </mxCell>
                <mxCell id="12" value="i_BM_" style="externalPins=0;recursiveResize=0;shadow=0;dashed=0;align=center;html=1;strokeWidth=1;shape=mxgraph.rtl.abstract.entity;container=1;collapsible=0;kind=input;drawPins=0;left=0;right=1;bottom=0;top=0;fillColor=#d5e8d4;strokeColor=#82b366;" parent="1" vertex="1">
                    <mxGeometry x="1834" y="110" width="120" height="40" as="geometry"/>
                </mxCell>
                <mxCell id="13" value="" style="endArrow=none;html=1;exitX=0;exitY=0;exitDx=120;exitDy=20;exitPerimeter=0;entryX=0;entryY=0;entryDx=40;entryDy=0;entryPerimeter=0;" parent="1" source="12" target="2" edge="1">
                    <mxGeometry width="50" height="50" relative="1" as="geometry">
                        <mxPoint x="1984" y="140" as="sourcePoint"/>
                        <mxPoint x="2044" y="140" as="targetPoint"/>
                        <Array as="points">
                            <mxPoint x="2054" y="130"/>
                        </Array>
                    </mxGeometry>
                </mxCell>
                <mxCell id="14" value="" style="endArrow=none;html=1;exitX=0;exitY=0;exitDx=120;exitDy=20;exitPerimeter=0;entryX=0;entryY=0;entryDx=40;entryDy=0;entryPerimeter=0;" parent="1" source="11" target="3" edge="1">
                    <mxGeometry width="50" height="50" relative="1" as="geometry">
                        <mxPoint x="1964" y="470" as="sourcePoint"/>
                        <mxPoint x="2024" y="470" as="targetPoint"/>
                        <Array as="points">
                            <mxPoint x="2054" y="370"/>
                        </Array>
                    </mxGeometry>
                </mxCell>
                <mxCell id="19" value="" style="group;fillColor=#fff2cc;strokeColor=#d6b656;" parent="1" vertex="1" connectable="0">
                    <mxGeometry x="2229" y="310" width="80" height="80" as="geometry"/>
                </mxCell>
                <mxCell id="538" value="" style="group" parent="19" vertex="1" connectable="0">
                    <mxGeometry width="80" height="80" as="geometry"/>
                </mxCell>
                <mxCell id="16" value="" style="rounded=0;whiteSpace=wrap;html=1;fillColor=#ffe6cc;strokeColor=#d79b00;" parent="538" vertex="1">
                    <mxGeometry width="80" height="80" as="geometry"/>
                </mxCell>
                <mxCell id="17" value="" style="endArrow=none;html=1;strokeWidth=4;" parent="538" edge="1">
                    <mxGeometry width="50" height="50" relative="1" as="geometry">
                        <mxPoint x="60" y="16" as="sourcePoint"/>
                        <mxPoint x="20" y="36" as="targetPoint"/>
                    </mxGeometry>
                </mxCell>
                <mxCell id="18" value="" style="endArrow=none;html=1;strokeWidth=4;" parent="538" edge="1">
                    <mxGeometry width="50" height="50" relative="1" as="geometry">
                        <mxPoint x="20" y="36" as="sourcePoint"/>
                        <mxPoint x="60" y="56" as="targetPoint"/>
                    </mxGeometry>
                </mxCell>
                <mxCell id="534" value="" style="endArrow=none;html=1;strokeWidth=4;" parent="538" edge="1">
                    <mxGeometry width="50" height="50" relative="1" as="geometry">
                        <mxPoint x="20" y="46" as="sourcePoint"/>
                        <mxPoint x="60" y="66" as="targetPoint"/>
                    </mxGeometry>
                </mxCell>
                <mxCell id="28" style="edgeStyle=none;html=1;exitX=0;exitY=0;exitDx=30;exitDy=70;exitPerimeter=0;" parent="1" source="24" target="29" edge="1">
                    <mxGeometry relative="1" as="geometry">
                        <mxPoint x="2534" y="350.2758620689656" as="targetPoint"/>
                    </mxGeometry>
                </mxCell>
                <mxCell id="24" value="" style="externalPins=0;recursiveResize=0;shadow=0;dashed=0;align=center;html=1;strokeWidth=1;shape=mxgraph.rtl.abstract.entity;container=1;collapsible=0;kind=mux;drawPins=0;left=4;right=1;bottom=0;top=0;fillColor=#fff2cc;strokeColor=#d6b656;" parent="1" vertex="1">
                    <mxGeometry x="2414" y="280" width="30" height="140" as="geometry"/>
                </mxCell>
                <mxCell id="63" value="1" style="text;html=1;align=center;verticalAlign=middle;resizable=0;points=[];autosize=1;strokeColor=none;fillColor=none;" parent="24" vertex="1">
                    <mxGeometry y="15" width="30" height="30" as="geometry"/>
                </mxCell>
                <mxCell id="62" value="0" style="text;html=1;align=center;verticalAlign=middle;resizable=0;points=[];autosize=1;strokeColor=none;fillColor=none;" parent="24" vertex="1">
                    <mxGeometry y="95" width="30" height="30" as="geometry"/>
                </mxCell>
                <mxCell id="25" style="edgeStyle=none;html=1;exitX=0;exitY=0;exitDx=120.00000000000001;exitDy=20;exitPerimeter=0;entryX=0;entryY=0;entryDx=0;entryDy=30;entryPerimeter=0;" parent="1" source="57" target="24" edge="1">
                    <mxGeometry relative="1" as="geometry">
                        <Array as="points">
                            <mxPoint x="2374" y="230"/>
                            <mxPoint x="2374" y="310"/>
                        </Array>
                    </mxGeometry>
                </mxCell>
                <mxCell id="26" style="edgeStyle=none;html=1;exitX=0;exitY=0;exitDx=120.00000000000001;exitDy=20;exitPerimeter=0;" parent="1" source="59" edge="1">
                    <mxGeometry relative="1" as="geometry">
                        <mxPoint x="2414" y="390" as="targetPoint"/>
                        <Array as="points">
                            <mxPoint x="2374" y="460"/>
                            <mxPoint x="2374" y="390"/>
                        </Array>
                    </mxGeometry>
                </mxCell>
                <mxCell id="27" style="edgeStyle=none;html=1;exitX=0.5;exitY=1;exitDx=0;exitDy=0;entryX=0.566;entryY=0.935;entryDx=0;entryDy=0;entryPerimeter=0;" parent="1" source="16" target="24" edge="1">
                    <mxGeometry relative="1" as="geometry">
                        <mxPoint x="2294" y="490" as="targetPoint"/>
                        <Array as="points">
                            <mxPoint x="2269" y="510"/>
                            <mxPoint x="2431" y="510"/>
                        </Array>
                    </mxGeometry>
                </mxCell>
                <mxCell id="29" value="o_PM_" style="externalPins=0;recursiveResize=0;shadow=0;dashed=0;align=center;html=1;strokeWidth=1;shape=mxgraph.rtl.abstract.entity;container=1;collapsible=0;kind=output;drawPins=0;left=1;right=0;bottom=0;top=0;fillColor=#dae8fc;strokeColor=#6c8ebf;" parent="1" vertex="1">
                    <mxGeometry x="2484" y="329.9958620689656" width="120" height="40" as="geometry"/>
                </mxCell>
                <mxCell id="31" value="" style="endArrow=none;dashed=1;html=1;dashPattern=1 3;strokeWidth=3;" parent="1" edge="1">
                    <mxGeometry width="50" height="50" relative="1" as="geometry">
                        <mxPoint x="2124" y="110" as="sourcePoint"/>
                        <mxPoint x="2124" y="550" as="targetPoint"/>
                    </mxGeometry>
                </mxCell>
                <mxCell id="32" value="" style="endArrow=none;dashed=1;html=1;dashPattern=1 3;strokeWidth=3;" parent="1" edge="1">
                    <mxGeometry width="50" height="50" relative="1" as="geometry">
                        <mxPoint x="2364" y="110" as="sourcePoint"/>
                        <mxPoint x="2364" y="550" as="targetPoint"/>
                    </mxGeometry>
                </mxCell>
                <mxCell id="33" value="Add_Unit" style="rounded=0;whiteSpace=wrap;html=1;fillColor=#e1d5e7;strokeColor=#9673a6;" parent="1" vertex="1">
                    <mxGeometry x="2004" y="70" width="80" height="40" as="geometry"/>
                </mxCell>
                <mxCell id="34" value="Compare_Unit" style="rounded=0;whiteSpace=wrap;html=1;fillColor=#e1d5e7;strokeColor=#9673a6;" parent="1" vertex="1">
                    <mxGeometry x="2204" y="70" width="80" height="40" as="geometry"/>
                </mxCell>
                <mxCell id="35" value="Select_Unit" style="rounded=0;whiteSpace=wrap;html=1;fillColor=#e1d5e7;strokeColor=#9673a6;" parent="1" vertex="1">
                    <mxGeometry x="2424" y="70" width="80" height="40" as="geometry"/>
                </mxCell>
                <mxCell id="37" value="&lt;font style=&quot;font-size: 20px;&quot;&gt;ACSU&lt;/font&gt;" style="rounded=1;whiteSpace=wrap;html=1;fillColor=#ffe6cc;strokeColor=#d79b00;arcSize=0;" parent="1" vertex="1">
                    <mxGeometry x="2086" y="710" width="235" height="200" as="geometry"/>
                </mxCell>
                <mxCell id="44" style="edgeStyle=none;html=1;exitX=1;exitY=0.5;exitDx=0;exitDy=0;entryX=0;entryY=0.5;entryDx=0;entryDy=0;strokeWidth=3;fillColor=#f8cecc;strokeColor=#b85450;dashed=1;" parent="1" source="38" target="42" edge="1">
                    <mxGeometry relative="1" as="geometry"/>
                </mxCell>
                <mxCell id="48" value="&lt;font style=&quot;font-size: 24px;&quot;&gt;0&lt;/font&gt;" style="edgeLabel;html=1;align=center;verticalAlign=middle;resizable=0;points=[];fontColor=default;labelBackgroundColor=none;" parent="44" vertex="1" connectable="0">
                    <mxGeometry x="-0.1132" relative="1" as="geometry">
                        <mxPoint y="-10" as="offset"/>
                    </mxGeometry>
                </mxCell>
                <mxCell id="38" value="&lt;font style=&quot;font-size: 24px;&quot;&gt;2j&lt;/font&gt;" style="ellipse;whiteSpace=wrap;html=1;aspect=fixed;fillColor=#fff2cc;strokeColor=#d6b656;" parent="1" vertex="1">
                    <mxGeometry x="-650" y="120" width="80" height="80" as="geometry"/>
                </mxCell>
                <mxCell id="46" style="edgeStyle=none;html=1;exitX=1;exitY=0.5;exitDx=0;exitDy=0;entryX=0;entryY=0.5;entryDx=0;entryDy=0;strokeWidth=3;fillColor=#e1d5e7;strokeColor=#9673a6;" parent="1" source="39" target="43" edge="1">
                    <mxGeometry relative="1" as="geometry"/>
                </mxCell>
                <mxCell id="51" value="&lt;span&gt;&lt;font style=&quot;font-size: 24px;&quot;&gt;1&lt;/font&gt;&lt;/span&gt;" style="edgeLabel;html=1;align=center;verticalAlign=middle;resizable=0;points=[];labelBackgroundColor=none;" parent="46" vertex="1" connectable="0">
                    <mxGeometry x="-0.1013" y="3" relative="1" as="geometry">
                        <mxPoint y="-9" as="offset"/>
                    </mxGeometry>
                </mxCell>
                <mxCell id="39" value="&lt;font style=&quot;font-size: 24px;&quot;&gt;2j + 1&lt;/font&gt;" style="ellipse;whiteSpace=wrap;html=1;aspect=fixed;fillColor=#fff2cc;strokeColor=#d6b656;" parent="1" vertex="1">
                    <mxGeometry x="-650" y="320" width="80" height="80" as="geometry"/>
                </mxCell>
                <mxCell id="42" value="&lt;font style=&quot;font-size: 24px;&quot;&gt;j&lt;/font&gt;" style="ellipse;whiteSpace=wrap;html=1;aspect=fixed;fillColor=#ffe6cc;strokeColor=#d79b00;" parent="1" vertex="1">
                    <mxGeometry x="-410" y="120" width="80" height="80" as="geometry"/>
                </mxCell>
                <mxCell id="43" value="&lt;font style=&quot;font-size: 24px;&quot;&gt;j + 2&lt;/font&gt;" style="ellipse;whiteSpace=wrap;html=1;aspect=fixed;fillColor=#ffe6cc;strokeColor=#d79b00;" parent="1" vertex="1">
                    <mxGeometry x="-410" y="320" width="80" height="80" as="geometry"/>
                </mxCell>
                <mxCell id="45" style="edgeStyle=none;html=1;exitX=1;exitY=0;exitDx=0;exitDy=0;entryX=0;entryY=1;entryDx=0;entryDy=0;strokeWidth=3;fillColor=#f8cecc;strokeColor=#b85450;dashed=1;" parent="1" source="39" target="42" edge="1">
                    <mxGeometry relative="1" as="geometry">
                        <mxPoint x="-570" y="338.94" as="sourcePoint"/>
                        <mxPoint x="-410" y="338.94" as="targetPoint"/>
                    </mxGeometry>
                </mxCell>
                <mxCell id="49" value="&lt;font style=&quot;font-size: 24px;&quot;&gt;0&lt;/font&gt;" style="edgeLabel;html=1;align=center;verticalAlign=middle;resizable=0;points=[];labelBackgroundColor=none;" parent="45" vertex="1" connectable="0">
                    <mxGeometry x="0.1843" y="3" relative="1" as="geometry">
                        <mxPoint x="-59" y="36" as="offset"/>
                    </mxGeometry>
                </mxCell>
                <mxCell id="47" style="edgeStyle=none;html=1;exitX=1;exitY=1;exitDx=0;exitDy=0;entryX=0;entryY=0;entryDx=0;entryDy=0;strokeWidth=3;fillColor=#e1d5e7;strokeColor=#9673a6;" parent="1" source="38" target="43" edge="1">
                    <mxGeometry relative="1" as="geometry">
                        <mxPoint x="-580" y="230" as="sourcePoint"/>
                        <mxPoint x="-420" y="230" as="targetPoint"/>
                    </mxGeometry>
                </mxCell>
                <mxCell id="50" value="&lt;font style=&quot;font-size: 24px;&quot;&gt;1&lt;/font&gt;" style="edgeLabel;html=1;align=center;verticalAlign=middle;resizable=0;points=[];labelBackgroundColor=none;" parent="47" vertex="1" connectable="0">
                    <mxGeometry x="-0.276" y="1" relative="1" as="geometry">
                        <mxPoint x="5" y="-9" as="offset"/>
                    </mxGeometry>
                </mxCell>
                <mxCell id="53" value="Current State" style="rounded=0;whiteSpace=wrap;html=1;fillColor=#f8cecc;strokeColor=#b85450;" parent="1" vertex="1">
                    <mxGeometry x="-650" y="420" width="80" height="40" as="geometry"/>
                </mxCell>
                <mxCell id="54" value="Next State" style="rounded=0;whiteSpace=wrap;html=1;fillColor=#f8cecc;strokeColor=#b85450;" parent="1" vertex="1">
                    <mxGeometry x="-410" y="420" width="80" height="40" as="geometry"/>
                </mxCell>
                <mxCell id="55" value="&lt;font style=&quot;font-size: 14px;&quot;&gt;State relationship for the path metrics computation&lt;/font&gt;&lt;div&gt;&lt;font style=&quot;font-size: 14px;&quot;&gt;(0 &amp;lt;= j &amp;lt;= 4)&lt;/font&gt;&lt;/div&gt;" style="rounded=1;whiteSpace=wrap;html=1;fillColor=#e1d5e7;strokeColor=#9673a6;" parent="1" vertex="1">
                    <mxGeometry x="-650" y="520" width="330" height="40" as="geometry"/>
                </mxCell>
                <mxCell id="56" value="Chuyển trạng thái State trong bộ VD (3, 1, 2)" style="text;strokeColor=none;fillColor=none;html=1;fontSize=24;fontStyle=1;verticalAlign=middle;align=left;" parent="1" vertex="1">
                    <mxGeometry x="-740" width="680" height="80" as="geometry"/>
                </mxCell>
                <mxCell id="58" value="" style="edgeStyle=none;html=1;exitX=0;exitY=0;exitDx=80;exitDy=40;exitPerimeter=0;entryX=0;entryY=0;entryDx=0;entryDy=20;entryPerimeter=0;" parent="1" source="2" target="57" edge="1">
                    <mxGeometry relative="1" as="geometry">
                        <mxPoint x="2094" y="230" as="sourcePoint"/>
                        <mxPoint x="2414" y="310" as="targetPoint"/>
                        <Array as="points"/>
                    </mxGeometry>
                </mxCell>
                <mxCell id="57" value="metric_path_0" style="externalPins=0;recursiveResize=0;shadow=0;dashed=0;align=center;html=1;strokeWidth=1;shape=mxgraph.rtl.abstract.entity;container=1;collapsible=0;kind=inout;drawPins=0;left=1;right=1;bottom=0;top=0;fillColor=#e1d5e7;strokeColor=#9673a6;" parent="1" vertex="1">
                    <mxGeometry x="2189" y="210" width="120" height="40" as="geometry"/>
                </mxCell>
                <mxCell id="59" value="metric_path_1" style="externalPins=0;recursiveResize=0;shadow=0;dashed=0;align=center;html=1;strokeWidth=1;shape=mxgraph.rtl.abstract.entity;container=1;collapsible=0;kind=inout;drawPins=0;left=1;right=1;bottom=0;top=0;fillColor=#e1d5e7;strokeColor=#9673a6;" parent="1" vertex="1">
                    <mxGeometry x="2184" y="440" width="120" height="40" as="geometry"/>
                </mxCell>
                <mxCell id="60" style="edgeStyle=none;html=1;exitX=0;exitY=0;exitDx=80;exitDy=40;exitPerimeter=0;entryX=0;entryY=0;entryDx=0;entryDy=20;entryPerimeter=0;" parent="1" source="3" target="59" edge="1">
                    <mxGeometry relative="1" as="geometry"/>
                </mxCell>
                <mxCell id="61" value="decision_select" style="externalPins=0;recursiveResize=0;shadow=0;dashed=0;align=center;html=1;strokeWidth=1;shape=mxgraph.rtl.abstract.entity;container=1;collapsible=0;kind=inout;drawPins=0;left=1;right=1;bottom=0;top=0;fillColor=#e1d5e7;strokeColor=#9673a6;" parent="1" vertex="1">
                    <mxGeometry x="2294" y="490" width="120" height="40" as="geometry"/>
                </mxCell>
                <mxCell id="86" value="" style="rounded=1;whiteSpace=wrap;html=1;fillColor=#f5f5f5;fontColor=#333333;strokeColor=#666666;arcSize=9;" parent="1" vertex="1">
                    <mxGeometry x="-690" y="600" width="400" height="285" as="geometry"/>
                </mxCell>
                <mxCell id="67" value="&lt;font style=&quot;font-size: 20px;&quot;&gt;Butterfly_0&lt;/font&gt;" style="rounded=0;whiteSpace=wrap;html=1;fillColor=#fff2cc;strokeColor=#d6b656;" parent="1" vertex="1">
                    <mxGeometry x="-570" y="645" width="160" height="80" as="geometry"/>
                </mxCell>
                <mxCell id="68" value="" style="edgeStyle=none;orthogonalLoop=1;jettySize=auto;html=1;entryX=0;entryY=0.25;entryDx=0;entryDy=0;" parent="1" target="67" edge="1">
                    <mxGeometry width="100" relative="1" as="geometry">
                        <mxPoint x="-650" y="665" as="sourcePoint"/>
                        <mxPoint x="-550" y="665" as="targetPoint"/>
                        <Array as="points"/>
                    </mxGeometry>
                </mxCell>
                <mxCell id="70" value="&lt;font style=&quot;font-size: 24px;&quot;&gt;S0&lt;/font&gt;" style="edgeLabel;html=1;align=center;verticalAlign=middle;resizable=0;points=[];labelBackgroundColor=none;" parent="68" vertex="1" connectable="0">
                    <mxGeometry x="-0.2848" y="2" relative="1" as="geometry">
                        <mxPoint x="-15" y="-13" as="offset"/>
                    </mxGeometry>
                </mxCell>
                <mxCell id="69" value="" style="edgeStyle=none;orthogonalLoop=1;jettySize=auto;html=1;entryX=0;entryY=0.75;entryDx=0;entryDy=0;" parent="1" target="67" edge="1">
                    <mxGeometry width="100" relative="1" as="geometry">
                        <mxPoint x="-650" y="705" as="sourcePoint"/>
                        <mxPoint x="-570" y="735" as="targetPoint"/>
                        <Array as="points"/>
                    </mxGeometry>
                </mxCell>
                <mxCell id="71" value="&lt;font style=&quot;font-size: 24px;&quot;&gt;S1&lt;/font&gt;" style="edgeLabel;html=1;align=center;verticalAlign=middle;resizable=0;points=[];labelBackgroundColor=none;" parent="69" vertex="1" connectable="0">
                    <mxGeometry x="-0.5778" y="1" relative="1" as="geometry">
                        <mxPoint x="-3" y="-14" as="offset"/>
                    </mxGeometry>
                </mxCell>
                <mxCell id="72" value="" style="edgeStyle=none;orthogonalLoop=1;jettySize=auto;html=1;entryX=0;entryY=0.25;entryDx=0;entryDy=0;exitX=1;exitY=0.25;exitDx=0;exitDy=0;" parent="1" source="67" edge="1">
                    <mxGeometry width="100" relative="1" as="geometry">
                        <mxPoint x="-390" y="675" as="sourcePoint"/>
                        <mxPoint x="-330" y="664.7" as="targetPoint"/>
                        <Array as="points"/>
                    </mxGeometry>
                </mxCell>
                <mxCell id="73" value="&lt;font style=&quot;font-size: 24px;&quot;&gt;S0&lt;/font&gt;" style="edgeLabel;html=1;align=center;verticalAlign=middle;resizable=0;points=[];labelBackgroundColor=none;" parent="72" vertex="1" connectable="0">
                    <mxGeometry x="-0.2848" y="2" relative="1" as="geometry">
                        <mxPoint x="25" y="-13" as="offset"/>
                    </mxGeometry>
                </mxCell>
                <mxCell id="74" value="" style="edgeStyle=none;orthogonalLoop=1;jettySize=auto;html=1;entryX=0;entryY=0.75;entryDx=0;entryDy=0;" parent="1" edge="1">
                    <mxGeometry width="100" relative="1" as="geometry">
                        <mxPoint x="-410" y="704.7" as="sourcePoint"/>
                        <mxPoint x="-330" y="704.7" as="targetPoint"/>
                        <Array as="points"/>
                    </mxGeometry>
                </mxCell>
                <mxCell id="75" value="&lt;font style=&quot;font-size: 24px;&quot;&gt;S2&lt;/font&gt;" style="edgeLabel;html=1;align=center;verticalAlign=middle;resizable=0;points=[];labelBackgroundColor=none;" parent="74" vertex="1" connectable="0">
                    <mxGeometry x="-0.5778" y="1" relative="1" as="geometry">
                        <mxPoint x="37" y="-14" as="offset"/>
                    </mxGeometry>
                </mxCell>
                <mxCell id="76" value="&lt;font style=&quot;font-size: 20px;&quot;&gt;Butterfly_1&lt;/font&gt;" style="rounded=0;whiteSpace=wrap;html=1;fillColor=#fff2cc;strokeColor=#d6b656;" parent="1" vertex="1">
                    <mxGeometry x="-570" y="765" width="160" height="80" as="geometry"/>
                </mxCell>
                <mxCell id="77" value="" style="edgeStyle=none;orthogonalLoop=1;jettySize=auto;html=1;entryX=0;entryY=0.25;entryDx=0;entryDy=0;" parent="1" target="76" edge="1">
                    <mxGeometry width="100" relative="1" as="geometry">
                        <mxPoint x="-650" y="785" as="sourcePoint"/>
                        <mxPoint x="-550" y="785" as="targetPoint"/>
                        <Array as="points"/>
                    </mxGeometry>
                </mxCell>
                <mxCell id="78" value="&lt;font style=&quot;font-size: 24px;&quot;&gt;S2&lt;/font&gt;" style="edgeLabel;html=1;align=center;verticalAlign=middle;resizable=0;points=[];labelBackgroundColor=none;" parent="77" vertex="1" connectable="0">
                    <mxGeometry x="-0.2848" y="2" relative="1" as="geometry">
                        <mxPoint x="-15" y="-13" as="offset"/>
                    </mxGeometry>
                </mxCell>
                <mxCell id="79" value="" style="edgeStyle=none;orthogonalLoop=1;jettySize=auto;html=1;entryX=0;entryY=0.75;entryDx=0;entryDy=0;" parent="1" target="76" edge="1">
                    <mxGeometry width="100" relative="1" as="geometry">
                        <mxPoint x="-650" y="825" as="sourcePoint"/>
                        <mxPoint x="-570" y="855" as="targetPoint"/>
                        <Array as="points"/>
                    </mxGeometry>
                </mxCell>
                <mxCell id="80" value="&lt;font style=&quot;font-size: 24px;&quot;&gt;S3&lt;/font&gt;" style="edgeLabel;html=1;align=center;verticalAlign=middle;resizable=0;points=[];labelBackgroundColor=none;" parent="79" vertex="1" connectable="0">
                    <mxGeometry x="-0.5778" y="1" relative="1" as="geometry">
                        <mxPoint x="-3" y="-14" as="offset"/>
                    </mxGeometry>
                </mxCell>
                <mxCell id="81" value="" style="edgeStyle=none;orthogonalLoop=1;jettySize=auto;html=1;entryX=0;entryY=0.25;entryDx=0;entryDy=0;exitX=1;exitY=0.25;exitDx=0;exitDy=0;" parent="1" source="76" edge="1">
                    <mxGeometry width="100" relative="1" as="geometry">
                        <mxPoint x="-390" y="795" as="sourcePoint"/>
                        <mxPoint x="-330" y="784.7" as="targetPoint"/>
                        <Array as="points"/>
                    </mxGeometry>
                </mxCell>
                <mxCell id="82" value="&lt;font style=&quot;font-size: 24px;&quot;&gt;S1&lt;/font&gt;" style="edgeLabel;html=1;align=center;verticalAlign=middle;resizable=0;points=[];labelBackgroundColor=none;" parent="81" vertex="1" connectable="0">
                    <mxGeometry x="-0.2848" y="2" relative="1" as="geometry">
                        <mxPoint x="25" y="-13" as="offset"/>
                    </mxGeometry>
                </mxCell>
                <mxCell id="83" value="" style="edgeStyle=none;orthogonalLoop=1;jettySize=auto;html=1;entryX=0;entryY=0.75;entryDx=0;entryDy=0;" parent="1" edge="1">
                    <mxGeometry width="100" relative="1" as="geometry">
                        <mxPoint x="-410" y="824.7" as="sourcePoint"/>
                        <mxPoint x="-330" y="824.7" as="targetPoint"/>
                        <Array as="points"/>
                    </mxGeometry>
                </mxCell>
                <mxCell id="84" value="&lt;font style=&quot;font-size: 24px;&quot;&gt;S3&lt;/font&gt;" style="edgeLabel;html=1;align=center;verticalAlign=middle;resizable=0;points=[];labelBackgroundColor=none;" parent="83" vertex="1" connectable="0">
                    <mxGeometry x="-0.5778" y="1" relative="1" as="geometry">
                        <mxPoint x="37" y="-14" as="offset"/>
                    </mxGeometry>
                </mxCell>
                <mxCell id="321" value="i_BM_" style="externalPins=0;recursiveResize=0;shadow=0;dashed=0;align=center;html=1;strokeWidth=1;shape=mxgraph.rtl.abstract.entity;container=1;collapsible=0;kind=input;drawPins=0;left=0;right=1;bottom=0;top=0;fillColor=#d5e8d4;strokeColor=#82b366;" parent="1" vertex="1">
                    <mxGeometry x="1932" y="730" width="120" height="40" as="geometry"/>
                </mxCell>
                <mxCell id="322" value="i_PM_" style="externalPins=0;recursiveResize=0;shadow=0;dashed=0;align=center;html=1;strokeWidth=1;shape=mxgraph.rtl.abstract.entity;container=1;collapsible=0;kind=input;drawPins=0;left=0;right=1;bottom=0;top=0;fillColor=#d5e8d4;strokeColor=#82b366;" parent="1" vertex="1">
                    <mxGeometry x="1932" y="770" width="120" height="40" as="geometry"/>
                </mxCell>
                <mxCell id="323" value="i_BM_" style="externalPins=0;recursiveResize=0;shadow=0;dashed=0;align=center;html=1;strokeWidth=1;shape=mxgraph.rtl.abstract.entity;container=1;collapsible=0;kind=input;drawPins=0;left=0;right=1;bottom=0;top=0;fillColor=#d5e8d4;strokeColor=#82b366;" parent="1" vertex="1">
                    <mxGeometry x="1932" y="810" width="120" height="40" as="geometry"/>
                </mxCell>
                <mxCell id="328" style="edgeStyle=none;html=1;exitX=0;exitY=0;exitDx=120;exitDy=20;exitPerimeter=0;entryX=-0.002;entryY=0.8;entryDx=0;entryDy=0;entryPerimeter=0;" parent="1" source="324" target="37" edge="1">
                    <mxGeometry relative="1" as="geometry">
                        <mxPoint x="2078" y="870.1290322580644" as="targetPoint"/>
                    </mxGeometry>
                </mxCell>
                <mxCell id="324" value="i_PM_" style="externalPins=0;recursiveResize=0;shadow=0;dashed=0;align=center;html=1;strokeWidth=1;shape=mxgraph.rtl.abstract.entity;container=1;collapsible=0;kind=input;drawPins=0;left=0;right=1;bottom=0;top=0;fillColor=#d5e8d4;strokeColor=#82b366;" parent="1" vertex="1">
                    <mxGeometry x="1932" y="850" width="120" height="40" as="geometry"/>
                </mxCell>
                <mxCell id="325" style="edgeStyle=none;html=1;exitX=0;exitY=0;exitDx=120;exitDy=20;exitPerimeter=0;entryX=0.003;entryY=0.201;entryDx=0;entryDy=0;entryPerimeter=0;" parent="1" source="321" target="37" edge="1">
                    <mxGeometry relative="1" as="geometry"/>
                </mxCell>
                <mxCell id="326" style="edgeStyle=none;html=1;exitX=0;exitY=0;exitDx=120;exitDy=20;exitPerimeter=0;" parent="1" source="322" edge="1">
                    <mxGeometry relative="1" as="geometry">
                        <mxPoint x="2086" y="790" as="targetPoint"/>
                    </mxGeometry>
                </mxCell>
                <mxCell id="327" style="edgeStyle=none;html=1;exitX=0;exitY=0;exitDx=120;exitDy=20;exitPerimeter=0;" parent="1" source="323" edge="1">
                    <mxGeometry relative="1" as="geometry">
                        <mxPoint x="2085" y="830" as="targetPoint"/>
                    </mxGeometry>
                </mxCell>
                <mxCell id="330" style="edgeStyle=none;html=1;exitX=1;exitY=0.5;exitDx=0;exitDy=0;entryX=0;entryY=0;entryDx=0;entryDy=20;entryPerimeter=0;" parent="1" source="37" target="329" edge="1">
                    <mxGeometry relative="1" as="geometry"/>
                </mxCell>
                <mxCell id="535" value="" style="edgeStyle=none;html=1;" parent="1" source="329" target="347" edge="1">
                    <mxGeometry relative="1" as="geometry"/>
                </mxCell>
                <mxCell id="329" value="o_PM_" style="externalPins=0;recursiveResize=0;shadow=0;dashed=0;align=center;html=1;strokeWidth=1;shape=mxgraph.rtl.abstract.entity;container=1;collapsible=0;kind=output;drawPins=0;left=1;right=0;bottom=0;top=0;fillColor=#dae8fc;strokeColor=#6c8ebf;" parent="1" vertex="1">
                    <mxGeometry x="2358" y="789.9958620689656" width="120" height="40" as="geometry"/>
                </mxCell>
                <mxCell id="333" style="edgeStyle=none;html=1;exitX=1;exitY=1;exitDx=0;exitDy=0;entryX=1;entryY=1;entryDx=0;entryDy=0;jumpStyle=none;dashed=1;" parent="1" source="37" target="30" edge="1">
                    <mxGeometry relative="1" as="geometry"/>
                </mxCell>
                <mxCell id="334" style="edgeStyle=none;html=1;exitX=0;exitY=1;exitDx=0;exitDy=0;entryX=0;entryY=1;entryDx=0;entryDy=0;jumpStyle=none;dashed=1;" parent="1" source="37" target="30" edge="1">
                    <mxGeometry relative="1" as="geometry"/>
                </mxCell>
                <mxCell id="339" value="&lt;span style=&quot;color: rgb(0, 0, 0);&quot;&gt;Add Compare Select Unit&lt;/span&gt;" style="rounded=1;whiteSpace=wrap;html=1;fillColor=#e1d5e7;strokeColor=#9673a6;" parent="1" vertex="1">
                    <mxGeometry x="2065.5" y="950" width="276" height="40" as="geometry"/>
                </mxCell>
                <mxCell id="342" style="edgeStyle=none;html=1;exitX=1;exitY=0.5;exitDx=0;exitDy=0;entryX=0;entryY=0;entryDx=0;entryDy=20;entryPerimeter=0;" parent="1" source="347" edge="1">
                    <mxGeometry relative="1" as="geometry">
                        <mxPoint x="2358" y="810" as="targetPoint"/>
                    </mxGeometry>
                </mxCell>
                <mxCell id="343" style="edgeStyle=none;html=1;exitX=0;exitY=0;exitDx=120;exitDy=20;exitPerimeter=0;entryX=0.003;entryY=0.201;entryDx=0;entryDy=0;entryPerimeter=0;" parent="1" target="347" edge="1">
                    <mxGeometry relative="1" as="geometry">
                        <mxPoint x="2052" y="750" as="sourcePoint"/>
                    </mxGeometry>
                </mxCell>
                <mxCell id="344" style="edgeStyle=none;html=1;exitX=0;exitY=0;exitDx=120;exitDy=20;exitPerimeter=0;" parent="1" edge="1">
                    <mxGeometry relative="1" as="geometry">
                        <mxPoint x="2052" y="790" as="sourcePoint"/>
                        <mxPoint x="2086" y="790" as="targetPoint"/>
                    </mxGeometry>
                </mxCell>
                <mxCell id="345" style="edgeStyle=none;html=1;exitX=0;exitY=0;exitDx=120;exitDy=20;exitPerimeter=0;" parent="1" edge="1">
                    <mxGeometry relative="1" as="geometry">
                        <mxPoint x="2052" y="830" as="sourcePoint"/>
                        <mxPoint x="2085" y="830" as="targetPoint"/>
                    </mxGeometry>
                </mxCell>
                <mxCell id="346" style="edgeStyle=none;html=1;exitX=0;exitY=0;exitDx=120;exitDy=20;exitPerimeter=0;entryX=-0.002;entryY=0.8;entryDx=0;entryDy=0;entryPerimeter=0;" parent="1" target="347" edge="1">
                    <mxGeometry relative="1" as="geometry">
                        <mxPoint x="2078" y="870.1290322580644" as="targetPoint"/>
                        <mxPoint x="2052" y="870" as="sourcePoint"/>
                    </mxGeometry>
                </mxCell>
                <mxCell id="347" value="&lt;font style=&quot;font-size: 20px;&quot;&gt;ACSU&lt;/font&gt;" style="rounded=1;whiteSpace=wrap;html=1;fillColor=#ffe6cc;strokeColor=#d79b00;arcSize=0;" parent="1" vertex="1">
                    <mxGeometry x="2086" y="710" width="235" height="200" as="geometry"/>
                </mxCell>
                <mxCell id="360" style="edgeStyle=none;html=1;exitX=1;exitY=0.5;exitDx=0;exitDy=0;entryX=0;entryY=0;entryDx=0;entryDy=20;entryPerimeter=0;" parent="1" source="365" edge="1">
                    <mxGeometry relative="1" as="geometry">
                        <mxPoint x="1566" y="180" as="targetPoint"/>
                    </mxGeometry>
                </mxCell>
                <mxCell id="361" style="edgeStyle=none;html=1;exitX=0;exitY=0;exitDx=120;exitDy=20;exitPerimeter=0;entryX=0.003;entryY=0.201;entryDx=0;entryDy=0;entryPerimeter=0;" parent="1" source="367" target="365" edge="1">
                    <mxGeometry relative="1" as="geometry">
                        <mxPoint x="1260" y="120" as="sourcePoint"/>
                    </mxGeometry>
                </mxCell>
                <mxCell id="362" style="edgeStyle=none;html=1;exitX=0;exitY=0;exitDx=120;exitDy=20;exitPerimeter=0;" parent="1" source="411" edge="1">
                    <mxGeometry relative="1" as="geometry">
                        <mxPoint x="1260" y="160" as="sourcePoint"/>
                        <mxPoint x="1294" y="160" as="targetPoint"/>
                    </mxGeometry>
                </mxCell>
                <mxCell id="363" style="edgeStyle=none;html=1;exitX=0;exitY=0;exitDx=120;exitDy=20;exitPerimeter=0;" parent="1" source="412" edge="1">
                    <mxGeometry relative="1" as="geometry">
                        <mxPoint x="1260" y="200" as="sourcePoint"/>
                        <mxPoint x="1293" y="200" as="targetPoint"/>
                    </mxGeometry>
                </mxCell>
                <mxCell id="364" style="edgeStyle=none;html=1;exitX=0;exitY=0;exitDx=120;exitDy=20;exitPerimeter=0;entryX=-0.002;entryY=0.8;entryDx=0;entryDy=0;entryPerimeter=0;" parent="1" source="413" target="365" edge="1">
                    <mxGeometry relative="1" as="geometry">
                        <mxPoint x="1286" y="240.1290322580644" as="targetPoint"/>
                        <mxPoint x="1260" y="240" as="sourcePoint"/>
                    </mxGeometry>
                </mxCell>
                <mxCell id="365" value="&lt;font style=&quot;font-size: 20px;&quot;&gt;ACSU0&lt;/font&gt;" style="rounded=1;whiteSpace=wrap;html=1;fillColor=#ffe6cc;strokeColor=#d79b00;arcSize=0;" parent="1" vertex="1">
                    <mxGeometry x="1294" y="80" width="235" height="200" as="geometry"/>
                </mxCell>
                <mxCell id="366" value="o_PM_0" style="externalPins=0;recursiveResize=0;shadow=0;dashed=0;align=center;html=1;strokeWidth=1;shape=mxgraph.rtl.abstract.entity;container=1;collapsible=0;kind=output;drawPins=0;left=1;right=0;bottom=0;top=0;fillColor=#dae8fc;strokeColor=#6c8ebf;" parent="1" vertex="1">
                    <mxGeometry x="1566" y="159.9958620689656" width="120" height="40" as="geometry"/>
                </mxCell>
                <mxCell id="367" value="i_BM_0" style="externalPins=0;recursiveResize=0;shadow=0;dashed=0;align=center;html=1;strokeWidth=1;shape=mxgraph.rtl.abstract.entity;container=1;collapsible=0;kind=inout;drawPins=0;left=1;right=1;bottom=0;top=0;fillColor=#e1d5e7;strokeColor=#9673a6;" parent="1" vertex="1">
                    <mxGeometry x="1140" y="100" width="120" height="40" as="geometry"/>
                </mxCell>
                <mxCell id="411" value="i_PM_0" style="externalPins=0;recursiveResize=0;shadow=0;dashed=0;align=center;html=1;strokeWidth=1;shape=mxgraph.rtl.abstract.entity;container=1;collapsible=0;kind=inout;drawPins=0;left=1;right=1;bottom=0;top=0;fillColor=#e1d5e7;strokeColor=#9673a6;" parent="1" vertex="1">
                    <mxGeometry x="1140" y="140" width="120" height="40" as="geometry"/>
                </mxCell>
                <mxCell id="412" value="i_BM_3" style="externalPins=0;recursiveResize=0;shadow=0;dashed=0;align=center;html=1;strokeWidth=1;shape=mxgraph.rtl.abstract.entity;container=1;collapsible=0;kind=inout;drawPins=0;left=1;right=1;bottom=0;top=0;fillColor=#e1d5e7;strokeColor=#9673a6;" parent="1" vertex="1">
                    <mxGeometry x="1140" y="180" width="120" height="40" as="geometry"/>
                </mxCell>
                <mxCell id="413" value="i_PM_1" style="externalPins=0;recursiveResize=0;shadow=0;dashed=0;align=center;html=1;strokeWidth=1;shape=mxgraph.rtl.abstract.entity;container=1;collapsible=0;kind=inout;drawPins=0;left=1;right=1;bottom=0;top=0;fillColor=#e1d5e7;strokeColor=#9673a6;" parent="1" vertex="1">
                    <mxGeometry x="1140" y="220" width="120" height="40" as="geometry"/>
                </mxCell>
                <mxCell id="415" style="edgeStyle=none;html=1;exitX=1;exitY=0.5;exitDx=0;exitDy=0;entryX=0;entryY=0;entryDx=0;entryDy=20;entryPerimeter=0;" parent="1" source="420" edge="1">
                    <mxGeometry relative="1" as="geometry">
                        <mxPoint x="1566" y="380" as="targetPoint"/>
                    </mxGeometry>
                </mxCell>
                <mxCell id="416" style="edgeStyle=none;html=1;exitX=0;exitY=0;exitDx=120;exitDy=20;exitPerimeter=0;entryX=0.003;entryY=0.201;entryDx=0;entryDy=0;entryPerimeter=0;" parent="1" source="422" target="420" edge="1">
                    <mxGeometry relative="1" as="geometry">
                        <mxPoint x="1260" y="320" as="sourcePoint"/>
                    </mxGeometry>
                </mxCell>
                <mxCell id="417" style="edgeStyle=none;html=1;exitX=0;exitY=0;exitDx=120;exitDy=20;exitPerimeter=0;" parent="1" source="423" edge="1">
                    <mxGeometry relative="1" as="geometry">
                        <mxPoint x="1260" y="360" as="sourcePoint"/>
                        <mxPoint x="1294" y="360" as="targetPoint"/>
                    </mxGeometry>
                </mxCell>
                <mxCell id="418" style="edgeStyle=none;html=1;exitX=0;exitY=0;exitDx=120;exitDy=20;exitPerimeter=0;" parent="1" source="424" edge="1">
                    <mxGeometry relative="1" as="geometry">
                        <mxPoint x="1260" y="400" as="sourcePoint"/>
                        <mxPoint x="1293" y="400" as="targetPoint"/>
                    </mxGeometry>
                </mxCell>
                <mxCell id="419" style="edgeStyle=none;html=1;exitX=0;exitY=0;exitDx=120;exitDy=20;exitPerimeter=0;entryX=-0.002;entryY=0.8;entryDx=0;entryDy=0;entryPerimeter=0;" parent="1" source="425" target="420" edge="1">
                    <mxGeometry relative="1" as="geometry">
                        <mxPoint x="1286" y="440.1290322580644" as="targetPoint"/>
                        <mxPoint x="1260" y="440" as="sourcePoint"/>
                    </mxGeometry>
                </mxCell>
                <mxCell id="420" value="&lt;font style=&quot;font-size: 20px;&quot;&gt;ACSU1&lt;/font&gt;" style="rounded=1;whiteSpace=wrap;html=1;fillColor=#ffe6cc;strokeColor=#d79b00;arcSize=0;" parent="1" vertex="1">
                    <mxGeometry x="1294" y="280" width="235" height="200" as="geometry"/>
                </mxCell>
                <mxCell id="421" value="o_PM_1" style="externalPins=0;recursiveResize=0;shadow=0;dashed=0;align=center;html=1;strokeWidth=1;shape=mxgraph.rtl.abstract.entity;container=1;collapsible=0;kind=output;drawPins=0;left=1;right=0;bottom=0;top=0;fillColor=#dae8fc;strokeColor=#6c8ebf;" parent="1" vertex="1">
                    <mxGeometry x="1566" y="359.9958620689656" width="120" height="40" as="geometry"/>
                </mxCell>
                <mxCell id="422" value="i_BM_2" style="externalPins=0;recursiveResize=0;shadow=0;dashed=0;align=center;html=1;strokeWidth=1;shape=mxgraph.rtl.abstract.entity;container=1;collapsible=0;kind=inout;drawPins=0;left=1;right=1;bottom=0;top=0;fillColor=#e1d5e7;strokeColor=#9673a6;" parent="1" vertex="1">
                    <mxGeometry x="1140" y="300" width="120" height="40" as="geometry"/>
                </mxCell>
                <mxCell id="423" value="i_PM_2" style="externalPins=0;recursiveResize=0;shadow=0;dashed=0;align=center;html=1;strokeWidth=1;shape=mxgraph.rtl.abstract.entity;container=1;collapsible=0;kind=inout;drawPins=0;left=1;right=1;bottom=0;top=0;fillColor=#e1d5e7;strokeColor=#9673a6;" parent="1" vertex="1">
                    <mxGeometry x="1140" y="340" width="120" height="40" as="geometry"/>
                </mxCell>
                <mxCell id="424" value="i_BM_1" style="externalPins=0;recursiveResize=0;shadow=0;dashed=0;align=center;html=1;strokeWidth=1;shape=mxgraph.rtl.abstract.entity;container=1;collapsible=0;kind=inout;drawPins=0;left=1;right=1;bottom=0;top=0;fillColor=#e1d5e7;strokeColor=#9673a6;" parent="1" vertex="1">
                    <mxGeometry x="1140" y="380" width="120" height="40" as="geometry"/>
                </mxCell>
                <mxCell id="425" value="i_PM_3" style="externalPins=0;recursiveResize=0;shadow=0;dashed=0;align=center;html=1;strokeWidth=1;shape=mxgraph.rtl.abstract.entity;container=1;collapsible=0;kind=inout;drawPins=0;left=1;right=1;bottom=0;top=0;fillColor=#e1d5e7;strokeColor=#9673a6;" parent="1" vertex="1">
                    <mxGeometry x="1140" y="420" width="120" height="40" as="geometry"/>
                </mxCell>
                <mxCell id="426" style="edgeStyle=none;html=1;exitX=1;exitY=0.5;exitDx=0;exitDy=0;entryX=0;entryY=0;entryDx=0;entryDy=20;entryPerimeter=0;" parent="1" source="431" edge="1">
                    <mxGeometry relative="1" as="geometry">
                        <mxPoint x="1566" y="580" as="targetPoint"/>
                    </mxGeometry>
                </mxCell>
                <mxCell id="427" style="edgeStyle=none;html=1;exitX=0;exitY=0;exitDx=120;exitDy=20;exitPerimeter=0;entryX=0.003;entryY=0.201;entryDx=0;entryDy=0;entryPerimeter=0;" parent="1" source="433" target="431" edge="1">
                    <mxGeometry relative="1" as="geometry">
                        <mxPoint x="1260" y="520" as="sourcePoint"/>
                    </mxGeometry>
                </mxCell>
                <mxCell id="428" style="edgeStyle=none;html=1;exitX=0;exitY=0;exitDx=120;exitDy=20;exitPerimeter=0;" parent="1" source="434" edge="1">
                    <mxGeometry relative="1" as="geometry">
                        <mxPoint x="1260" y="560" as="sourcePoint"/>
                        <mxPoint x="1294" y="560" as="targetPoint"/>
                    </mxGeometry>
                </mxCell>
                <mxCell id="429" style="edgeStyle=none;html=1;exitX=0;exitY=0;exitDx=120;exitDy=20;exitPerimeter=0;" parent="1" source="435" edge="1">
                    <mxGeometry relative="1" as="geometry">
                        <mxPoint x="1260" y="600" as="sourcePoint"/>
                        <mxPoint x="1293" y="600" as="targetPoint"/>
                    </mxGeometry>
                </mxCell>
                <mxCell id="430" style="edgeStyle=none;html=1;exitX=0;exitY=0;exitDx=120;exitDy=20;exitPerimeter=0;entryX=-0.002;entryY=0.8;entryDx=0;entryDy=0;entryPerimeter=0;" parent="1" source="436" target="431" edge="1">
                    <mxGeometry relative="1" as="geometry">
                        <mxPoint x="1286" y="640.1290322580644" as="targetPoint"/>
                        <mxPoint x="1260" y="640" as="sourcePoint"/>
                    </mxGeometry>
                </mxCell>
                <mxCell id="431" value="&lt;font style=&quot;font-size: 20px;&quot;&gt;ACSU2&lt;/font&gt;" style="rounded=1;whiteSpace=wrap;html=1;fillColor=#ffe6cc;strokeColor=#d79b00;arcSize=0;" parent="1" vertex="1">
                    <mxGeometry x="1294" y="480" width="235" height="200" as="geometry"/>
                </mxCell>
                <mxCell id="432" value="o_PM_2" style="externalPins=0;recursiveResize=0;shadow=0;dashed=0;align=center;html=1;strokeWidth=1;shape=mxgraph.rtl.abstract.entity;container=1;collapsible=0;kind=output;drawPins=0;left=1;right=0;bottom=0;top=0;fillColor=#dae8fc;strokeColor=#6c8ebf;" parent="1" vertex="1">
                    <mxGeometry x="1566" y="559.9958620689656" width="120" height="40" as="geometry"/>
                </mxCell>
                <mxCell id="433" value="i_BM_3" style="externalPins=0;recursiveResize=0;shadow=0;dashed=0;align=center;html=1;strokeWidth=1;shape=mxgraph.rtl.abstract.entity;container=1;collapsible=0;kind=inout;drawPins=0;left=1;right=1;bottom=0;top=0;fillColor=#e1d5e7;strokeColor=#9673a6;" parent="1" vertex="1">
                    <mxGeometry x="1140" y="500" width="120" height="40" as="geometry"/>
                </mxCell>
                <mxCell id="434" value="i_PM_0" style="externalPins=0;recursiveResize=0;shadow=0;dashed=0;align=center;html=1;strokeWidth=1;shape=mxgraph.rtl.abstract.entity;container=1;collapsible=0;kind=inout;drawPins=0;left=1;right=1;bottom=0;top=0;fillColor=#e1d5e7;strokeColor=#9673a6;" parent="1" vertex="1">
                    <mxGeometry x="1140" y="540" width="120" height="40" as="geometry"/>
                </mxCell>
                <mxCell id="435" value="i_BM_0" style="externalPins=0;recursiveResize=0;shadow=0;dashed=0;align=center;html=1;strokeWidth=1;shape=mxgraph.rtl.abstract.entity;container=1;collapsible=0;kind=inout;drawPins=0;left=1;right=1;bottom=0;top=0;fillColor=#e1d5e7;strokeColor=#9673a6;" parent="1" vertex="1">
                    <mxGeometry x="1140" y="580" width="120" height="40" as="geometry"/>
                </mxCell>
                <mxCell id="436" value="i_PM_1" style="externalPins=0;recursiveResize=0;shadow=0;dashed=0;align=center;html=1;strokeWidth=1;shape=mxgraph.rtl.abstract.entity;container=1;collapsible=0;kind=inout;drawPins=0;left=1;right=1;bottom=0;top=0;fillColor=#e1d5e7;strokeColor=#9673a6;" parent="1" vertex="1">
                    <mxGeometry x="1140" y="620" width="120" height="40" as="geometry"/>
                </mxCell>
                <mxCell id="437" style="edgeStyle=none;html=1;exitX=1;exitY=0.5;exitDx=0;exitDy=0;entryX=0;entryY=0;entryDx=0;entryDy=20;entryPerimeter=0;" parent="1" source="442" edge="1">
                    <mxGeometry relative="1" as="geometry">
                        <mxPoint x="1566" y="780" as="targetPoint"/>
                    </mxGeometry>
                </mxCell>
                <mxCell id="438" style="edgeStyle=none;html=1;exitX=0;exitY=0;exitDx=120;exitDy=20;exitPerimeter=0;entryX=0.003;entryY=0.201;entryDx=0;entryDy=0;entryPerimeter=0;" parent="1" source="444" target="442" edge="1">
                    <mxGeometry relative="1" as="geometry">
                        <mxPoint x="1260" y="720" as="sourcePoint"/>
                    </mxGeometry>
                </mxCell>
                <mxCell id="439" style="edgeStyle=none;html=1;exitX=0;exitY=0;exitDx=120;exitDy=20;exitPerimeter=0;" parent="1" source="445" edge="1">
                    <mxGeometry relative="1" as="geometry">
                        <mxPoint x="1260" y="760" as="sourcePoint"/>
                        <mxPoint x="1294" y="760" as="targetPoint"/>
                    </mxGeometry>
                </mxCell>
                <mxCell id="440" style="edgeStyle=none;html=1;exitX=0;exitY=0;exitDx=120;exitDy=20;exitPerimeter=0;" parent="1" source="446" edge="1">
                    <mxGeometry relative="1" as="geometry">
                        <mxPoint x="1260" y="800" as="sourcePoint"/>
                        <mxPoint x="1293" y="800" as="targetPoint"/>
                    </mxGeometry>
                </mxCell>
                <mxCell id="441" style="edgeStyle=none;html=1;exitX=0;exitY=0;exitDx=120;exitDy=20;exitPerimeter=0;entryX=-0.002;entryY=0.8;entryDx=0;entryDy=0;entryPerimeter=0;" parent="1" source="447" target="442" edge="1">
                    <mxGeometry relative="1" as="geometry">
                        <mxPoint x="1286" y="840.1290322580644" as="targetPoint"/>
                        <mxPoint x="1260" y="840" as="sourcePoint"/>
                    </mxGeometry>
                </mxCell>
                <mxCell id="442" value="&lt;font style=&quot;font-size: 20px;&quot;&gt;ACSU3&lt;/font&gt;" style="rounded=1;whiteSpace=wrap;html=1;fillColor=#ffe6cc;strokeColor=#d79b00;arcSize=0;" parent="1" vertex="1">
                    <mxGeometry x="1294" y="680" width="235" height="200" as="geometry"/>
                </mxCell>
                <mxCell id="443" value="o_PM_3" style="externalPins=0;recursiveResize=0;shadow=0;dashed=0;align=center;html=1;strokeWidth=1;shape=mxgraph.rtl.abstract.entity;container=1;collapsible=0;kind=output;drawPins=0;left=1;right=0;bottom=0;top=0;fillColor=#dae8fc;strokeColor=#6c8ebf;" parent="1" vertex="1">
                    <mxGeometry x="1566" y="759.9958620689656" width="120" height="40" as="geometry"/>
                </mxCell>
                <mxCell id="444" value="i_BM_1" style="externalPins=0;recursiveResize=0;shadow=0;dashed=0;align=center;html=1;strokeWidth=1;shape=mxgraph.rtl.abstract.entity;container=1;collapsible=0;kind=inout;drawPins=0;left=1;right=1;bottom=0;top=0;fillColor=#e1d5e7;strokeColor=#9673a6;" parent="1" vertex="1">
                    <mxGeometry x="1140" y="700" width="120" height="40" as="geometry"/>
                </mxCell>
                <mxCell id="445" value="i_PM_2" style="externalPins=0;recursiveResize=0;shadow=0;dashed=0;align=center;html=1;strokeWidth=1;shape=mxgraph.rtl.abstract.entity;container=1;collapsible=0;kind=inout;drawPins=0;left=1;right=1;bottom=0;top=0;fillColor=#e1d5e7;strokeColor=#9673a6;" parent="1" vertex="1">
                    <mxGeometry x="1140" y="740" width="120" height="40" as="geometry"/>
                </mxCell>
                <mxCell id="446" value="i_BM_2" style="externalPins=0;recursiveResize=0;shadow=0;dashed=0;align=center;html=1;strokeWidth=1;shape=mxgraph.rtl.abstract.entity;container=1;collapsible=0;kind=inout;drawPins=0;left=1;right=1;bottom=0;top=0;fillColor=#e1d5e7;strokeColor=#9673a6;" parent="1" vertex="1">
                    <mxGeometry x="1140" y="780" width="120" height="40" as="geometry"/>
                </mxCell>
                <mxCell id="447" value="i_PM_3" style="externalPins=0;recursiveResize=0;shadow=0;dashed=0;align=center;html=1;strokeWidth=1;shape=mxgraph.rtl.abstract.entity;container=1;collapsible=0;kind=inout;drawPins=0;left=1;right=1;bottom=0;top=0;fillColor=#e1d5e7;strokeColor=#9673a6;" parent="1" vertex="1">
                    <mxGeometry x="1140" y="820" width="120" height="40" as="geometry"/>
                </mxCell>
                <mxCell id="448" value="i_BM_0" style="externalPins=0;recursiveResize=0;shadow=0;dashed=0;align=center;html=1;strokeWidth=1;shape=mxgraph.rtl.abstract.entity;container=1;collapsible=0;kind=input;drawPins=0;left=0;right=1;bottom=0;top=0;fillColor=#d5e8d4;strokeColor=#82b366;" parent="1" vertex="1">
                    <mxGeometry x="880" y="120" width="120" height="40" as="geometry"/>
                </mxCell>
                <mxCell id="449" value="i_BM_1" style="externalPins=0;recursiveResize=0;shadow=0;dashed=0;align=center;html=1;strokeWidth=1;shape=mxgraph.rtl.abstract.entity;container=1;collapsible=0;kind=input;drawPins=0;left=0;right=1;bottom=0;top=0;fillColor=#d5e8d4;strokeColor=#82b366;" parent="1" vertex="1">
                    <mxGeometry x="880" y="160" width="120" height="40" as="geometry"/>
                </mxCell>
                <mxCell id="450" value="i_BM_2" style="externalPins=0;recursiveResize=0;shadow=0;dashed=0;align=center;html=1;strokeWidth=1;shape=mxgraph.rtl.abstract.entity;container=1;collapsible=0;kind=input;drawPins=0;left=0;right=1;bottom=0;top=0;fillColor=#d5e8d4;strokeColor=#82b366;" parent="1" vertex="1">
                    <mxGeometry x="880" y="200" width="120" height="40" as="geometry"/>
                </mxCell>
                <mxCell id="451" value="i_BM_3" style="externalPins=0;recursiveResize=0;shadow=0;dashed=0;align=center;html=1;strokeWidth=1;shape=mxgraph.rtl.abstract.entity;container=1;collapsible=0;kind=input;drawPins=0;left=0;right=1;bottom=0;top=0;fillColor=#d5e8d4;strokeColor=#82b366;" parent="1" vertex="1">
                    <mxGeometry x="880" y="240" width="120" height="40" as="geometry"/>
                </mxCell>
                <mxCell id="452" value="i_PM_0" style="externalPins=0;recursiveResize=0;shadow=0;dashed=0;align=center;html=1;strokeWidth=1;shape=mxgraph.rtl.abstract.entity;container=1;collapsible=0;kind=input;drawPins=0;left=0;right=1;bottom=0;top=0;fillColor=#d5e8d4;strokeColor=#82b366;" parent="1" vertex="1">
                    <mxGeometry x="880" y="320" width="120" height="40" as="geometry"/>
                </mxCell>
                <mxCell id="453" value="i_PM_1" style="externalPins=0;recursiveResize=0;shadow=0;dashed=0;align=center;html=1;strokeWidth=1;shape=mxgraph.rtl.abstract.entity;container=1;collapsible=0;kind=input;drawPins=0;left=0;right=1;bottom=0;top=0;fillColor=#d5e8d4;strokeColor=#82b366;" parent="1" vertex="1">
                    <mxGeometry x="880" y="360" width="120" height="40" as="geometry"/>
                </mxCell>
                <mxCell id="454" value="i_PM_2" style="externalPins=0;recursiveResize=0;shadow=0;dashed=0;align=center;html=1;strokeWidth=1;shape=mxgraph.rtl.abstract.entity;container=1;collapsible=0;kind=input;drawPins=0;left=0;right=1;bottom=0;top=0;fillColor=#d5e8d4;strokeColor=#82b366;" parent="1" vertex="1">
                    <mxGeometry x="880" y="400" width="120" height="40" as="geometry"/>
                </mxCell>
                <mxCell id="455" value="i_PM_3" style="externalPins=0;recursiveResize=0;shadow=0;dashed=0;align=center;html=1;strokeWidth=1;shape=mxgraph.rtl.abstract.entity;container=1;collapsible=0;kind=input;drawPins=0;left=0;right=1;bottom=0;top=0;fillColor=#d5e8d4;strokeColor=#82b366;" parent="1" vertex="1">
                    <mxGeometry x="880" y="440" width="120" height="40" as="geometry"/>
                </mxCell>
                <mxCell id="458" style="edgeStyle=none;html=1;exitX=0;exitY=0;exitDx=120;exitDy=20;exitPerimeter=0;entryX=0;entryY=0;entryDx=0;entryDy=20;entryPerimeter=0;fillColor=#dae8fc;strokeColor=#6c8ebf;" parent="1" source="448" target="367" edge="1">
                    <mxGeometry relative="1" as="geometry">
                        <Array as="points">
                            <mxPoint x="1040" y="140"/>
                            <mxPoint x="1040" y="120"/>
                        </Array>
                    </mxGeometry>
                </mxCell>
                <mxCell id="459" style="edgeStyle=none;html=1;exitX=0;exitY=0;exitDx=120;exitDy=20;exitPerimeter=0;entryX=0;entryY=0;entryDx=0;entryDy=20;entryPerimeter=0;fillColor=#d80073;strokeColor=#A50040;" parent="1" source="452" target="411" edge="1">
                    <mxGeometry relative="1" as="geometry">
                        <Array as="points">
                            <mxPoint x="1080" y="340"/>
                            <mxPoint x="1080" y="160"/>
                        </Array>
                    </mxGeometry>
                </mxCell>
                <mxCell id="460" style="edgeStyle=none;html=1;exitX=0;exitY=0;exitDx=120;exitDy=20;exitPerimeter=0;entryX=0;entryY=0;entryDx=0;entryDy=20;entryPerimeter=0;fillColor=#e1d5e7;strokeColor=#9673a6;" parent="1" source="451" target="412" edge="1">
                    <mxGeometry relative="1" as="geometry">
                        <Array as="points">
                            <mxPoint x="1070" y="260"/>
                            <mxPoint x="1070" y="200"/>
                        </Array>
                    </mxGeometry>
                </mxCell>
                <mxCell id="461" style="edgeStyle=none;html=1;exitX=0;exitY=0;exitDx=120;exitDy=20;exitPerimeter=0;entryX=0;entryY=0;entryDx=0;entryDy=20;entryPerimeter=0;fillColor=#0050ef;strokeColor=#001DBC;" parent="1" source="453" target="413" edge="1">
                    <mxGeometry relative="1" as="geometry">
                        <Array as="points">
                            <mxPoint x="1090" y="380"/>
                            <mxPoint x="1090" y="240"/>
                        </Array>
                    </mxGeometry>
                </mxCell>
                <mxCell id="462" style="edgeStyle=none;html=1;exitX=0;exitY=0;exitDx=120;exitDy=20;exitPerimeter=0;entryX=0;entryY=0;entryDx=0;entryDy=20;entryPerimeter=0;fillColor=#f8cecc;strokeColor=#b85450;" parent="1" source="450" target="422" edge="1">
                    <mxGeometry relative="1" as="geometry">
                        <Array as="points">
                            <mxPoint x="1060" y="220"/>
                            <mxPoint x="1060" y="320"/>
                        </Array>
                    </mxGeometry>
                </mxCell>
                <mxCell id="463" style="edgeStyle=none;html=1;exitX=0;exitY=0;exitDx=120;exitDy=20;exitPerimeter=0;entryX=0;entryY=0;entryDx=0;entryDy=20;entryPerimeter=0;fillColor=#a20025;strokeColor=#6F0000;" parent="1" source="454" target="423" edge="1">
                    <mxGeometry relative="1" as="geometry">
                        <Array as="points">
                            <mxPoint x="1100" y="420"/>
                            <mxPoint x="1100" y="360"/>
                        </Array>
                    </mxGeometry>
                </mxCell>
                <mxCell id="464" style="edgeStyle=none;html=1;exitX=0;exitY=0;exitDx=120;exitDy=20;exitPerimeter=0;entryX=0;entryY=0;entryDx=0;entryDy=20;entryPerimeter=0;fillColor=#fff2cc;strokeColor=#d6b656;" parent="1" source="449" target="424" edge="1">
                    <mxGeometry relative="1" as="geometry">
                        <Array as="points">
                            <mxPoint x="1050" y="180"/>
                            <mxPoint x="1050" y="400"/>
                        </Array>
                    </mxGeometry>
                </mxCell>
                <mxCell id="465" style="edgeStyle=none;html=1;exitX=0;exitY=0;exitDx=120;exitDy=20;exitPerimeter=0;entryX=0;entryY=0;entryDx=0;entryDy=20;entryPerimeter=0;fillColor=#6d8764;strokeColor=#3A5431;" parent="1" source="455" target="425" edge="1">
                    <mxGeometry relative="1" as="geometry">
                        <Array as="points">
                            <mxPoint x="1110" y="460"/>
                            <mxPoint x="1110" y="440"/>
                        </Array>
                    </mxGeometry>
                </mxCell>
                <mxCell id="466" style="edgeStyle=none;html=1;exitX=0;exitY=0;exitDx=120;exitDy=20;exitPerimeter=0;entryX=0;entryY=0;entryDx=0;entryDy=20;entryPerimeter=0;fillColor=#e1d5e7;strokeColor=#9673a6;" parent="1" source="451" target="433" edge="1">
                    <mxGeometry relative="1" as="geometry">
                        <Array as="points">
                            <mxPoint x="1070" y="260"/>
                            <mxPoint x="1070" y="520"/>
                        </Array>
                    </mxGeometry>
                </mxCell>
                <mxCell id="467" style="edgeStyle=none;html=1;exitX=0;exitY=0;exitDx=120;exitDy=20;exitPerimeter=0;entryX=0;entryY=0;entryDx=0;entryDy=20;entryPerimeter=0;fillColor=#d80073;strokeColor=#A50040;" parent="1" source="452" target="434" edge="1">
                    <mxGeometry relative="1" as="geometry">
                        <Array as="points">
                            <mxPoint x="1080" y="340"/>
                            <mxPoint x="1080" y="560"/>
                        </Array>
                    </mxGeometry>
                </mxCell>
                <mxCell id="468" style="edgeStyle=none;html=1;exitX=0;exitY=0;exitDx=120;exitDy=20;exitPerimeter=0;entryX=0;entryY=0;entryDx=0;entryDy=20;entryPerimeter=0;fillColor=#dae8fc;strokeColor=#6c8ebf;" parent="1" source="448" target="435" edge="1">
                    <mxGeometry relative="1" as="geometry">
                        <Array as="points">
                            <mxPoint x="1040" y="140"/>
                            <mxPoint x="1040" y="600"/>
                        </Array>
                    </mxGeometry>
                </mxCell>
                <mxCell id="469" style="edgeStyle=none;html=1;exitX=0;exitY=0;exitDx=120;exitDy=20;exitPerimeter=0;entryX=0;entryY=0;entryDx=0;entryDy=20;entryPerimeter=0;fillColor=#0050ef;strokeColor=#001DBC;" parent="1" source="453" target="436" edge="1">
                    <mxGeometry relative="1" as="geometry">
                        <Array as="points">
                            <mxPoint x="1090" y="380"/>
                            <mxPoint x="1090" y="640"/>
                        </Array>
                    </mxGeometry>
                </mxCell>
                <mxCell id="470" style="edgeStyle=none;html=1;exitX=0;exitY=0;exitDx=120;exitDy=20;exitPerimeter=0;entryX=0;entryY=0;entryDx=0;entryDy=20;entryPerimeter=0;fillColor=#fff2cc;strokeColor=#d6b656;" parent="1" source="449" target="444" edge="1">
                    <mxGeometry relative="1" as="geometry">
                        <Array as="points">
                            <mxPoint x="1050" y="180"/>
                            <mxPoint x="1050" y="720"/>
                        </Array>
                    </mxGeometry>
                </mxCell>
                <mxCell id="471" style="edgeStyle=none;html=1;exitX=0;exitY=0;exitDx=120;exitDy=20;exitPerimeter=0;entryX=0;entryY=0;entryDx=0;entryDy=20;entryPerimeter=0;fillColor=#a20025;strokeColor=#6F0000;" parent="1" source="454" target="445" edge="1">
                    <mxGeometry relative="1" as="geometry">
                        <Array as="points">
                            <mxPoint x="1100" y="420"/>
                            <mxPoint x="1100" y="760"/>
                        </Array>
                    </mxGeometry>
                </mxCell>
                <mxCell id="472" style="edgeStyle=none;html=1;exitX=0;exitY=0;exitDx=120;exitDy=20;exitPerimeter=0;entryX=0;entryY=0;entryDx=0;entryDy=20;entryPerimeter=0;fillColor=#f8cecc;strokeColor=#b85450;" parent="1" source="450" target="446" edge="1">
                    <mxGeometry relative="1" as="geometry">
                        <Array as="points">
                            <mxPoint x="1060" y="220"/>
                            <mxPoint x="1060" y="800"/>
                        </Array>
                    </mxGeometry>
                </mxCell>
                <mxCell id="473" style="edgeStyle=none;html=1;exitX=0;exitY=0;exitDx=120;exitDy=20;exitPerimeter=0;entryX=0;entryY=0;entryDx=0;entryDy=20;entryPerimeter=0;fillColor=#6d8764;strokeColor=#3A5431;" parent="1" source="455" target="447" edge="1">
                    <mxGeometry relative="1" as="geometry">
                        <Array as="points">
                            <mxPoint x="1110" y="460"/>
                            <mxPoint x="1110" y="840"/>
                        </Array>
                    </mxGeometry>
                </mxCell>
                <mxCell id="477" value="&lt;span style=&quot;color: rgb(0, 0, 0);&quot;&gt;Block Add Compare Select Unit&lt;/span&gt;" style="rounded=1;whiteSpace=wrap;html=1;fillColor=#e1d5e7;strokeColor=#9673a6;" parent="1" vertex="1">
                    <mxGeometry x="1140" y="960" width="276" height="40" as="geometry"/>
                </mxCell>
            </root>
        </mxGraphModel>
    </diagram>
</mxfile>